<?xml version="1.0" encoding="UTF-8"?><svg id="Capa_1" xmlns="http://www.w3.org/2000/svg" xmlns:xlink="http://www.w3.org/1999/xlink" viewBox="0 0 333.21 113.73"><defs><style>.cls-1{fill:url(#Degradado_sin_nombre_13);}.cls-1,.cls-2,.cls-3{stroke-width:0px;}.cls-2{fill:#0369b1;}.cls-3{fill:#1da9ef;}</style><linearGradient id="Degradado_sin_nombre_13" x1="204.61" y1="57.97" x2="325.86" y2="57.97" gradientUnits="userSpaceOnUse"><stop offset="0" stop-color="#1da9ef"/><stop offset="1" stop-color="#0369b1"/></linearGradient></defs><path class="cls-2" d="M34.32,53.52l-6.22-11.2h-9.01v11.2h-8.85V14.32h17.02c10.25,0,16.07,4.93,16.07,13.61,0,6.05-2.58,10.41-7.34,12.65l8.34,12.93h-10.02ZM19.09,34.93h8.17c4.87,0,7.67-2.24,7.67-6.72s-2.8-6.55-7.67-6.55h-8.17v13.27Z"/><path class="cls-2" d="M76.93,41.09h-21.61c1.01,3.81,3.92,6.05,7.78,6.05,2.86,0,5.54-1.12,7.61-3.19l4.54,4.59c-3.02,3.36-7.45,5.32-12.88,5.32-9.63,0-15.73-6.16-15.73-15.29s6.33-15.45,15.51-15.45c10.58,0,15.51,7,14.78,17.97ZM68.87,35.99c-.11-3.98-2.69-6.55-6.66-6.55s-6.38,2.58-7.06,6.55h13.72Z"/><path class="cls-2" d="M113.84,38.62c0,9.13-5.54,15.23-14,15.23-4.2,0-7.5-1.68-9.69-4.7v15.23h-8.62V23.39h8.62v4.42c2.13-3.02,5.43-4.7,9.52-4.7,8.45,0,14.17,6.22,14.17,15.51ZM105.1,38.34c0-4.81-3.02-8.29-7.45-8.29s-7.5,3.42-7.5,8.29,3.08,8.34,7.5,8.34,7.45-3.42,7.45-8.34Z"/><path class="cls-2" d="M147.88,38.46c0,9.18-6.5,15.4-16.13,15.4s-16.18-6.22-16.18-15.4,6.5-15.34,16.18-15.34,16.13,6.1,16.13,15.34ZM124.2,38.57c0,4.93,3.08,8.29,7.56,8.29s7.5-3.36,7.5-8.29-3.08-8.29-7.5-8.29-7.56,3.36-7.56,8.29Z"/><path class="cls-2" d="M170.79,23.06v8.12c-6.16-.56-9.97,2.74-9.97,7.84v14.5h-8.62v-30.12h8.62v5.43c2.07-3.7,5.49-5.71,9.97-5.77Z"/><path class="cls-2" d="M192.74,51.84c-2.24,1.29-5.04,2.07-7.84,2.07-5.38,0-9.46-3.08-9.46-9.29v-13.94h-4.2v-5.94h4.2v-8.29h8.57v8.29h8.17v5.99h-8.17v12.43c0,2.52,1.06,3.53,2.91,3.47,1.12,0,2.46-.39,4.03-1.12l1.79,6.33Z"/><path class="cls-3" d="M157.79,61.93v40.12h13.49c6.93,0,12.33-1.71,16.22-5.14,3.88-3.42,5.83-8.47,5.83-15.12,0-4.06-.88-7.58-2.64-10.56-1.76-2.98-4.27-5.28-7.52-6.89-3.25-1.61-7.06-2.41-11.42-2.41h-13.95ZM178.8,70.83c1.84,1.07,3.23,2.56,4.19,4.48.96,1.91,1.43,4.07,1.43,6.49,0,4.06-1.09,7.23-3.27,9.53-2.18,2.3-5.32,3.44-9.41,3.44h-5.22v-25.54h5.8c2.49,0,4.65.54,6.49,1.61Z"/><rect class="cls-3" x="140.62" y="61.93" width="8.72" height="40.12"/><path class="cls-3" d="M131.25,82.8c1.38-2.09,2.07-4.62,2.07-7.61,0-4.28-1.27-7.57-3.82-9.84-2.54-2.28-6.09-3.41-10.65-3.41h-17.39v40.12h8.72v-13.6h6.83l7.06,13.6h8.95l-7.63-14.69c2.53-.96,4.48-2.48,5.85-4.56ZM122.56,79.73c-1.28.96-3.03,1.44-5.25,1.44h-7.12v-11.94h7.12c2.26,0,4.02.45,5.28,1.35,1.26.9,1.89,2.44,1.89,4.62,0,2.07-.64,3.58-1.92,4.53Z"/><path class="cls-1" d="M303.56,102.52h-.67l-1.42-2.59,17.64-17.64c2.2-2.2,3.42-5.13,3.42-8.25s-1.21-6.05-3.42-8.25l-45.62-45.62c-2.2-2.2-5.13-3.42-8.25-3.42s-6.05,1.21-8.25,3.42l-45.62,45.62c-2.2,2.2-3.42,5.13-3.42,8.25s1.21,6.05,3.42,8.25l17.63,17.63.08,2.6h-2.21l-17.86-17.86c-5.85-5.85-5.85-15.37,0-21.23l45.62-45.62c5.85-5.85,15.37-5.85,21.23,0l45.62,45.62c5.85,5.85,5.85,15.37,0,21.23l-17.9,17.86Z"/><polygon class="cls-3" points="230.41 102.52 227.81 102.52 227.81 70.61 246.18 70.61 246.18 73.21 230.41 73.21 230.41 102.52"/><polygon class="cls-3" points="264.55 102.52 261.95 102.52 261.95 41.31 247.48 41.31 247.48 102.52 244.88 102.52 244.88 38.71 264.55 38.71 264.55 102.52"/><polygon class="cls-3" points="281.8 62.12 279.21 62.12 279.21 51.52 263.25 51.52 263.25 48.92 281.8 48.92 281.8 62.12"/><path class="cls-2" d="M287.92,80.18c6.29,0,11.41-5.12,11.41-11.41s-5.12-11.41-11.41-11.41-11.41,5.12-11.41,11.41,5.12,11.41,11.41,11.41ZM287.92,60.35c4.64,0,8.42,3.78,8.42,8.42s-3.78,8.42-8.42,8.42-8.42-3.78-8.42-8.42,3.78-8.42,8.42-8.42Z"/><path class="cls-2" d="M275.61,89c0-2.35,1.91-4.26,4.26-4.26h16.09c2.35,0,4.26,1.91,4.26,4.26v13.52h2.99v-13.52c0-4-3.25-7.25-7.25-7.25h-16.09c-4,0-7.25,3.25-7.25,7.25v13.52h2.99v-13.52Z"/><rect class="cls-2" x="294.59" y="95.29" width="2.99" height="7.23"/><rect class="cls-2" x="278.27" y="95.29" width="2.99" height="7.23"/></svg>